<svg width="98" height="21" viewBox="0 0 98 21" fill="none" xmlns="http://www.w3.org/2000/svg">
<path d="M4.008 10.76C4.008 11.432 4.112 12.12 4.32 12.824C4.528 13.512 4.816 14.064 5.184 14.48H8.784V17H3.528C1.64 15.496 0.696 13.416 0.696 10.76C0.696 8.104 1.704 6.096 3.72 4.736H8.784V7.256H5.184C4.4 8.072 4.008 9.24 4.008 10.76ZM17.2108 17H11.9788C10.3788 15.512 9.57881 13.48 9.57881 10.904C9.57881 9.608 9.75481 8.48 10.1068 7.52C10.4748 6.56 11.0508 5.632 11.8348 4.736H17.4508C18.2828 5.696 18.8508 6.632 19.1548 7.544C19.4588 8.44 19.6108 9.56 19.6108 10.904C19.6108 13.48 18.8108 15.512 17.2108 17ZM13.6828 14.48H15.5068C16.0828 13.36 16.3708 12.088 16.3708 10.664C16.3708 9.24 16.0748 8.104 15.4828 7.256H13.6828C13.1068 8.072 12.8188 9.232 12.8188 10.736C12.8188 12.224 13.1068 13.472 13.6828 14.48ZM22.1539 4.736H27.4579V7.256H23.7139L25.9939 10.64C27.0179 12.096 27.5859 13.096 27.6979 13.64C27.7619 13.896 27.7939 14.16 27.7939 14.432C27.7939 15.568 27.3699 16.424 26.5219 17H20.4019V14.48H24.7939L22.2259 10.712C22.1139 10.536 21.9379 10.288 21.6979 9.968C21.4739 9.648 21.2979 9.392 21.1699 9.2C21.0419 8.992 20.9539 8.84 20.9059 8.744C20.8579 8.648 20.7939 8.528 20.7139 8.384C20.6339 8.224 20.5779 8.088 20.5459 7.976C20.4819 7.672 20.4499 7.424 20.4499 7.232C20.4499 6.064 21.0179 5.232 22.1539 4.736ZM34.6725 4.736H36.3765L36.9765 5.576C37.3125 5.272 37.6325 5.056 37.9365 4.928C38.2565 4.8 38.7285 4.736 39.3525 4.736H42.0165C42.7205 5.632 43.2005 6.528 43.4565 7.424C43.7125 8.32 43.8405 9.44 43.8405 10.784V17H40.6485V10.544C40.6485 9.072 40.4245 7.976 39.9765 7.256H37.6725C38.0245 7.944 38.2005 8.88 38.2005 10.064V17H35.0085V10.544C35.0085 9.024 34.8005 7.928 34.3845 7.256H32.5365V17H29.3445V4.736H31.8405L32.2725 5.6C32.6245 5.28 32.9525 5.056 33.2565 4.928C33.5765 4.8 34.0485 4.736 34.6725 4.736ZM51.3416 7.256H49.5416C49.3016 7.544 49.1016 7.944 48.9416 8.456C48.7976 8.968 48.7256 9.464 48.7256 9.944H52.1576C52.1896 9.464 52.1256 8.968 51.9656 8.456C51.8056 7.928 51.5976 7.528 51.3416 7.256ZM54.6056 14.48V17H48.5096C47.3896 16.248 46.5976 15.32 46.1336 14.216C45.6856 13.096 45.4616 11.968 45.4616 10.832C45.4616 8.208 46.4536 6.176 48.4376 4.736H52.3256C53.3976 5.52 54.1256 6.352 54.5096 7.232C54.8936 8.112 55.0856 9 55.0856 9.896C55.0856 10.792 55.0136 11.56 54.8696 12.2H48.8936C48.9416 12.568 49.0776 12.992 49.3016 13.472C49.5416 13.936 49.7976 14.272 50.0696 14.48H54.6056ZM57.1817 11.648V7.256H55.5257V4.736H57.1817V1.4H60.3737V4.736H62.3417V7.256H60.3737V12.416C60.3737 13.392 60.5417 14.08 60.8777 14.48H62.3417V17H58.9337C58.0857 16.216 57.5737 15.368 57.3977 14.456C57.2537 13.688 57.1817 12.752 57.1817 11.648ZM63.9383 17V4.736H67.1063V17H63.9383ZM63.9383 0.199999H67.1063V3.44H63.9383V0.199999ZM72.1408 10.76C72.1408 11.432 72.2448 12.12 72.4528 12.824C72.6608 13.512 72.9488 14.064 73.3168 14.48H76.9168V17H71.6608C69.7728 15.496 68.8288 13.416 68.8288 10.76C68.8288 8.104 69.8368 6.096 71.8528 4.736H76.9168V7.256H73.3168C72.5328 8.072 72.1408 9.24 72.1408 10.76ZM78.5164 17V0.199999H81.7084V9.104H82.0444L84.3004 4.736H87.4204L84.5884 10.088L87.4444 17H84.2764L82.0684 11.624H81.7084V17H78.5164ZM88.4288 10.256V4.736H91.6208V10.28C91.6208 11.672 91.9008 12.832 92.4608 13.76H93.8768C94.4048 12.848 94.6688 11.688 94.6688 10.28V4.736H97.8608V10.088C97.8608 11.288 97.7008 12.344 97.3808 13.256C97.0768 14.168 96.5728 15.2 95.8688 16.352L94.2608 18.968C93.9728 19.464 93.6688 19.832 93.3488 20.072C93.0288 20.312 92.6128 20.488 92.1008 20.6H88.3088V18.08H90.9008C91.2368 17.984 91.5168 17.816 91.7408 17.576C91.9648 17.336 92.1968 16.992 92.4368 16.544L92.5808 16.28H90.9248C90.1568 15.656 89.5488 14.816 89.1008 13.76C88.6528 12.688 88.4288 11.52 88.4288 10.256Z" fill="url(#paint0_linear_4_37)"/>
<defs>
<linearGradient id="paint0_linear_4_37" x1="44" y1="-8" x2="50" y2="25" gradientUnits="userSpaceOnUse">
<stop stop-color="#26FFBA"/>
<stop offset="1" stop-color="#C411FF"/>
</linearGradient>
</defs>
</svg>
