<svg width="32" height="32" viewBox="0 0 32 32" fill="none" xmlns="http://www.w3.org/2000/svg">
<path d="M21.9985 12.517L18.5185 16L22.003 19.483C22.3369 19.8169 22.5246 20.2699 22.5246 20.7422C22.5246 21.2145 22.3369 21.6675 22.003 22.0015C21.669 22.3355 21.216 22.5231 20.7437 22.5231C20.2714 22.5231 19.8184 22.3355 19.4844 22.0015L16 18.5185L12.517 22.003C12.1831 22.3369 11.7301 22.5246 11.2578 22.5246C10.7855 22.5246 10.3325 22.3369 9.99852 22.003C9.66455 21.669 9.47692 21.216 9.47692 20.7437C9.47692 20.2714 9.66455 19.8184 9.99852 19.4844L13.4815 16L10.0015 12.517C9.83612 12.3517 9.70494 12.1553 9.61544 11.9393C9.52595 11.7232 9.47988 11.4916 9.47988 11.2578C9.47988 10.7855 9.66751 10.3325 10.0015 9.99852C10.3355 9.66454 10.7884 9.47691 11.2607 9.47691C11.7331 9.47691 12.186 9.66454 12.52 9.99852L16 13.4815L19.483 9.99704C19.8169 9.66306 20.2699 9.47543 20.7422 9.47543C21.2145 9.47543 21.6675 9.66306 22.0015 9.99704C22.3355 10.331 22.5231 10.784 22.5231 11.2563C22.5231 11.7286 22.3355 12.1816 22.0015 12.5156L21.9985 12.517ZM32 16C32 19.1645 31.0616 22.2579 29.3035 24.8891C27.5454 27.5203 25.0466 29.5711 22.1229 30.7821C19.1993 31.9931 15.9823 32.3099 12.8786 31.6926C9.77486 31.0752 6.92394 29.5513 4.6863 27.3137C2.44866 25.0761 0.924806 22.2251 0.307443 19.1214C-0.309921 16.0177 0.00693258 12.8007 1.21793 9.87706C2.42894 6.95345 4.4797 4.45459 7.11088 2.69649C9.74207 0.938384 12.8355 0 16 0C20.242 0.00470552 24.309 1.69193 27.3085 4.69149C30.3081 7.69105 31.9953 11.758 32 16ZM28.4444 16C28.4444 13.5387 27.7146 11.1327 26.3472 9.08624C24.9798 7.03976 23.0362 5.44472 20.7623 4.50283C18.4884 3.56094 15.9862 3.3145 13.5722 3.79467C11.1582 4.27484 8.94084 5.46006 7.20045 7.20045C5.46007 8.94083 4.27485 11.1582 3.79468 13.5722C3.31451 15.9862 3.56095 18.4884 4.50284 20.7623C5.44473 23.0362 7.03976 24.9798 9.08624 26.3472C11.1327 27.7146 13.5387 28.4444 16 28.4444C19.2994 28.4409 22.4626 27.1287 24.7957 24.7956C27.1287 22.4626 28.4409 19.2994 28.4444 16Z" fill="#EEF7FB"/>
</svg>
