<svg width="16" height="16" viewBox="0 0 16 16" fill="none" xmlns="http://www.w3.org/2000/svg">
<g clip-path="url(#clip0_2_22)">
<path d="M4.976 16C4.792 16 4.632 15.948 4.496 15.844L2.54 14.056L0.56 11.476C0.472 11.364 0.416 11.296 0.392 11.272C0.368 11.24 0.356 11.168 0.356 11.056V4.936C0.356 4.824 0.368 4.752 0.392 4.72C0.424 4.688 0.48 4.62 0.56 4.516L2.396 2.14L4.496 0.159999C4.584 0.0879989 4.652 0.0439987 4.7 0.0279989C4.756 0.0119991 4.848 0.00399923 4.976 0.00399923H7.94C8.14 0.00399923 8.24 0.103999 8.24 0.303999V2.224C8.24 2.288 8.232 2.356 8.216 2.428C8.208 2.492 8.168 2.548 8.096 2.596L5.84 4.144L4.364 6.04V9.964L5.864 11.86L8.096 13.396C8.16 13.436 8.2 13.484 8.216 13.54C8.232 13.596 8.24 13.656 8.24 13.72V15.7C8.24 15.9 8.14 16 7.94 16H4.976Z" fill="#20D6FF"/>
<path d="M11.976 16C11.792 16 11.632 15.948 11.496 15.844L9.54 14.056L7.56 11.476C7.472 11.364 7.416 11.296 7.392 11.272C7.368 11.24 7.356 11.168 7.356 11.056V4.936C7.356 4.824 7.368 4.752 7.392 4.72C7.424 4.688 7.48 4.62 7.56 4.516L9.396 2.14L11.496 0.159999C11.584 0.0879989 11.652 0.0439987 11.7 0.0279989C11.756 0.0119991 11.848 0.00399923 11.976 0.00399923H14.94C15.14 0.00399923 15.24 0.103999 15.24 0.303999V2.224C15.24 2.288 15.232 2.356 15.216 2.428C15.208 2.492 15.168 2.548 15.096 2.596L12.84 4.144L11.364 6.04V9.964L12.864 11.86L15.096 13.396C15.16 13.436 15.2 13.484 15.216 13.54C15.232 13.596 15.24 13.656 15.24 13.72V15.7C15.24 15.9 15.14 16 14.94 16H11.976Z" fill="#20D6FF"/>
</g>
<defs>
<clipPath id="clip0_2_22">
<rect width="16" height="16" fill="white"/>
</clipPath>
</defs>
</svg>
