<svg width="372" height="58" viewBox="0 0 372 58" fill="none" xmlns="http://www.w3.org/2000/svg">
<g clip-path="url(#clip0_17_3)">
<path d="M5.14943 5.26207C5.14943 4.52644 5.39464 3.93793 5.88506 3.49655C6.37548 3.05517 6.96398 2.83448 7.65057 2.83448H27.3655C28.1011 2.83448 28.6161 3.05517 28.9103 3.49655C29.2536 3.93793 29.4253 4.42835 29.4253 4.96782C29.4253 5.45824 29.2536 5.92414 28.9103 6.36552C28.6161 6.8069 28.1011 7.02759 27.3655 7.02759H10.2989V20.0483H26.7034C27.4391 20.0483 27.9785 20.269 28.3218 20.7103C28.6651 21.1517 28.8368 21.6421 28.8368 22.1816C28.8368 22.672 28.6406 23.1379 28.2483 23.5793C27.8559 23.9716 27.341 24.1678 26.7034 24.1678H10.2989V40.5724C10.2989 41.308 10.1027 41.872 9.71034 42.2644C8.43525 43.1962 7.2092 43.2452 6.03218 42.4115C5.54176 42.0682 5.24751 41.4552 5.14943 40.5724V5.26207ZM40.342 43C39.7534 43 39.263 42.8038 38.8707 42.4115C38.1841 41.823 37.8408 41.21 37.8408 40.5724V5.33563C37.8408 4.40383 38.3312 3.6682 39.3121 3.12873C39.6063 3.03065 39.9006 2.93257 40.1948 2.83448H61.1603C61.896 2.83448 62.4354 3.05517 62.7787 3.49655C63.122 3.93793 63.2937 4.42835 63.2937 4.96782C63.2937 5.45824 63.0975 5.92414 62.7052 6.36552C62.3128 6.8069 61.7979 7.02759 61.1603 7.02759H42.696V20.3425H60.2776C61.0132 20.3425 61.5527 20.5632 61.896 21.0046C62.2393 21.3969 62.4109 21.8628 62.4109 22.4023C62.4109 22.8927 62.2148 23.3341 61.8224 23.7264C61.4301 24.1188 60.9151 24.3149 60.2776 24.3149H42.696V38.8805H61.9695C62.6561 38.8805 63.1711 39.1011 63.5144 39.5425C63.8577 39.9839 64.0293 40.4743 64.0293 41.0138C64.0293 41.5533 63.8331 42.0192 63.4408 42.4115C63.0975 42.8038 62.6071 43 61.9695 43H40.342ZM74.8674 43C73.8375 43 73.0528 42.5096 72.5134 41.5287C72.4153 41.2345 72.3908 40.9157 72.4398 40.5724V5.33563C72.4398 4.35479 72.9057 3.59464 73.8375 3.05517C74.1318 2.90805 74.475 2.83448 74.8674 2.83448H84.4306C94.9747 2.83448 101.693 6.65977 104.587 14.3103C105.519 16.8115 105.96 19.705 105.911 22.9908C105.911 29.5625 104.047 34.5402 100.32 37.9241C96.5931 41.308 91.3455 43 84.5777 43H74.8674ZM77.3685 39.1747H85.1662C93.013 39.1747 97.8682 35.987 99.7318 29.6115C100.32 27.6498 100.615 25.3693 100.615 22.7701C100.615 20.1709 100.222 17.8414 99.4375 15.7816C98.6528 13.7218 97.5249 12.0054 96.0536 10.6322C93.2582 8.08199 89.1386 6.8069 83.695 6.8069H77.3685V39.1747ZM116.805 43C115.775 43 114.99 42.5096 114.451 41.5287C114.353 41.2345 114.328 40.9157 114.377 40.5724V5.33563C114.377 4.35479 114.843 3.59464 115.775 3.05517C116.069 2.90805 116.413 2.83448 116.805 2.83448H126.368C136.912 2.83448 143.631 6.65977 146.524 14.3103C147.456 16.8115 147.898 19.705 147.849 22.9908C147.849 29.5625 145.985 34.5402 142.258 37.9241C138.531 41.308 133.283 43 126.515 43H116.805ZM119.306 39.1747H127.104C134.95 39.1747 139.806 35.987 141.669 29.6115C142.258 27.6498 142.552 25.3693 142.552 22.7701C142.552 20.1709 142.16 17.8414 141.375 15.7816C140.59 13.7218 139.462 12.0054 137.991 10.6322C135.196 8.08199 131.076 6.8069 125.632 6.8069H119.306V39.1747ZM171.837 25.9333V40.5724C171.837 41.7004 171.322 42.4605 170.292 42.8529C169.998 42.951 169.605 43 169.115 43C168.624 43 168.109 42.8038 167.57 42.4115C167.031 42.0192 166.761 41.4061 166.761 40.5724V26.0069L153.74 6.21839C153.495 5.92414 153.372 5.60536 153.372 5.26207C153.372 4.91877 153.446 4.6 153.593 4.30575C153.74 4.01149 153.961 3.74176 154.255 3.49655C154.844 3.05517 155.432 2.83448 156.021 2.83448C157.099 2.83448 157.884 3.27586 158.375 4.15862L169.63 22.0345H169.703L181.032 4.01149C181.522 3.22682 182.209 2.83448 183.092 2.83448C184.073 2.83448 184.759 3.22682 185.152 4.01149C185.348 4.2567 185.446 4.50192 185.446 4.74713C185.446 5.04138 185.323 5.38468 185.078 5.77701L171.837 25.9333Z" fill="#42BDE6"/>
<path d="M207.168 46.531C206.776 47.5119 206.187 47.9533 205.402 47.8552C204.863 47.8552 204.372 47.708 203.931 47.4138C203.539 47.1195 203.343 46.7762 203.343 46.3839C203.343 46.0406 203.392 45.6973 203.49 45.354L217.025 4.15862C217.32 3.17778 218.006 2.7364 219.085 2.83448C219.576 2.83448 220.017 2.98161 220.409 3.27586C220.802 3.57012 220.998 3.91341 220.998 4.30575C220.998 4.69808 220.973 5.04138 220.924 5.33563L207.168 46.531Z" fill="#839C9F"/>
<path d="M237.748 18.0621C232.255 18.0621 229.509 21.7157 229.509 29.023C229.509 32.4559 230.367 35.1533 232.084 37.1149C233.555 38.8314 235.467 39.7142 237.821 39.7632C240.225 39.7632 242.26 38.8559 243.927 37.0414C245.693 35.1287 246.575 32.505 246.575 29.1701C246.575 24.1678 245.006 20.7839 241.867 19.0184C240.789 18.3808 239.415 18.0621 237.748 18.0621ZM236.571 14.531C241.377 14.531 244.761 16.3701 246.723 20.0483V16.9586C246.821 16.3701 247.066 15.9042 247.458 15.5609C247.851 15.2176 248.316 15.046 248.856 15.046C249.395 15.046 249.886 15.2421 250.327 15.6345C250.769 16.0268 250.989 16.5418 250.989 17.1793V43.5885C250.989 47.4138 249.763 50.2582 247.311 52.1218C245.104 53.8874 241.916 54.7701 237.748 54.7701C234.021 54.7701 231.225 54.1326 229.362 52.8575C227.89 51.7785 227.155 50.8958 227.155 50.2092C227.155 49.7188 227.302 49.3019 227.596 48.9586C227.939 48.6644 228.307 48.5172 228.7 48.5172C229.141 48.5172 229.558 48.6398 229.95 48.8851C230.343 49.1793 230.808 49.449 231.348 49.6943C231.887 49.9395 232.427 50.1602 232.966 50.3563C234.389 50.8467 235.835 51.092 237.307 51.092C238.827 51.092 240.126 50.9693 241.205 50.7241C242.333 50.4789 243.29 50.0621 244.074 49.4736C245.742 48.3946 246.575 46.531 246.575 43.8828V37.4828C245.153 40.1801 242.897 41.9211 239.808 42.7057C238.827 42.9019 237.871 43 236.939 43C232.868 43 229.754 41.6023 227.596 38.8069C225.585 36.3057 224.58 33.0935 224.58 29.1701C224.58 25.0015 225.585 21.5931 227.596 18.9448C229.705 16.0023 232.697 14.531 236.571 14.531ZM284.821 40.9402C284.821 41.6268 284.551 42.1418 284.012 42.4851C283.521 42.8284 283.08 43 282.687 43C282.344 43 282.025 42.9755 281.731 42.9264C281.437 42.8284 281.192 42.6567 280.995 42.4115C280.505 42.0682 280.26 41.5778 280.26 40.9402V38.3655C279.083 40.9648 276.925 42.5831 273.786 43.2207C272.805 43.4659 271.751 43.5885 270.623 43.5885C269.495 43.5885 268.318 43.3923 267.092 43C265.866 42.6077 264.812 41.9701 263.929 41.0874C261.967 39.2238 260.986 36.4284 260.986 32.7011V17.2529C260.986 16.5663 261.207 16.0268 261.648 15.6345C262.09 15.2421 262.605 15.046 263.193 15.046C263.782 15.046 264.297 15.2421 264.738 15.6345C265.179 16.0268 265.4 16.5663 265.4 17.2529V33.069C265.4 35.7172 265.94 37.5563 267.018 38.5862C268.097 39.6161 269.716 40.131 271.874 40.131C275.503 40.131 278.004 38.6598 279.377 35.7172C279.917 34.6874 280.211 33.5103 280.26 32.1862V17.2529C280.26 16.5663 280.505 16.0268 280.995 15.6345C281.486 15.2421 282.025 15.046 282.614 15.046C283.202 15.046 283.717 15.2421 284.159 15.6345C284.6 16.0268 284.821 16.5663 284.821 17.2529V40.9402ZM300.64 5.33563C300.64 6.12031 300.371 6.75785 299.831 7.24828C299.292 7.7387 298.532 7.98391 297.551 7.98391C296.57 7.98391 295.81 7.7387 295.27 7.24828C294.731 6.75785 294.461 6.12031 294.461 5.33563C294.461 4.64904 294.731 4.06054 295.27 3.57011C295.81 3.07969 296.57 2.83448 297.551 2.83448C298.581 2.83448 299.341 3.07969 299.831 3.57011C300.371 4.06054 300.64 4.64904 300.64 5.33563ZM295.344 17.4C295.344 16.6644 295.589 16.1004 296.079 15.708C296.57 15.2667 297.011 15.046 297.404 15.046C297.796 15.046 298.115 15.1195 298.36 15.2667C298.605 15.3648 298.85 15.5364 299.096 15.7816C299.635 16.1249 299.905 16.6644 299.905 17.4V40.7931C299.905 41.5287 299.659 42.0927 299.169 42.4851C298.679 42.8284 298.139 43 297.551 43C296.962 43 296.447 42.8284 296.006 42.4851C295.564 42.0927 295.344 41.5287 295.344 40.7931V17.4ZM330.376 38.3655C327.924 41.8475 324.589 43.5885 320.371 43.5885C316.546 43.5885 313.554 42.0682 311.397 39.0276C309.533 36.2812 308.601 32.9464 308.601 29.023C308.601 22.4513 310.784 18.0375 315.148 15.7816C316.62 14.9479 318.091 14.531 319.562 14.531C321.082 14.531 322.333 14.6291 323.314 14.8253C324.295 14.9724 325.226 15.2912 326.109 15.7816C327.973 16.7134 329.395 17.9885 330.376 19.6069V5.04138C330.376 4.30575 330.621 3.7908 331.111 3.49655C331.602 3.15326 332.141 2.98161 332.73 2.98161C333.318 2.98161 333.833 3.15326 334.275 3.49655C334.716 3.7908 334.937 4.30575 334.937 5.04138V40.9402C334.937 41.6268 334.692 42.1418 334.201 42.4851C333.711 42.8284 333.269 43 332.877 43C332.485 43 332.141 42.9755 331.847 42.9264C331.602 42.8284 331.357 42.6567 331.111 42.4115C330.621 42.0682 330.376 41.5778 330.376 40.9402V38.3655ZM321.254 40.131C327.237 40.131 330.229 36.2812 330.229 28.5816C330.229 23.6284 328.733 20.3916 325.741 18.8713C324.613 18.2828 323.265 17.9885 321.695 17.9885C320.126 17.9885 318.826 18.3073 317.797 18.9448C316.767 19.5333 315.908 20.3425 315.222 21.3724C313.996 23.2851 313.383 25.7126 313.383 28.6552C313.383 33.0199 314.413 36.2322 316.472 38.292C317.649 39.518 319.243 40.131 321.254 40.131ZM369.798 28.2138C369.798 29.2437 369.21 29.8077 368.033 29.9057H347.876C348.072 34.908 350.034 38.1448 353.761 39.6161C354.791 39.9594 355.968 40.131 357.292 40.131C360.039 40.131 362.834 39.1257 365.679 37.1149C366.561 36.6245 367.297 36.6736 367.886 37.2621C368.18 37.5563 368.278 37.8506 368.18 38.1448C368.18 38.8314 368.008 39.3218 367.665 39.6161C364.967 42.3134 361.412 43.6375 356.998 43.5885C352.977 43.5885 349.74 42.2889 347.288 39.6897C344.541 36.9923 343.168 33.4368 343.168 29.023C343.168 24.9525 344.296 21.5931 346.552 18.9448C348.906 16.0023 352.241 14.531 356.557 14.531C360.872 14.531 364.158 15.8307 366.414 18.4299C368.572 20.7839 369.7 24.0452 369.798 28.2138ZM365.458 26.8897C365.311 24.2414 364.453 22.059 362.883 20.3425C361.412 18.7732 359.303 17.9885 356.557 17.9885C354.203 17.9885 352.192 18.8713 350.525 20.6368C349.004 22.4023 348.171 24.4866 348.023 26.8897H365.458Z" fill="#88C0D0"/>
</g>
<defs>
<clipPath id="clip0_17_3">
<rect width="372" height="58" fill="white"/>
</clipPath>
</defs>
</svg>
