<svg width="337" height="58" viewBox="0 0 337 58" fill="none" xmlns="http://www.w3.org/2000/svg">
<g clip-path="url(#clip0_17_3)">
<path d="M5.14943 5.26207C5.14943 4.52644 5.39464 3.93793 5.88506 3.49655C6.37548 3.05517 6.96398 2.83448 7.65057 2.83448H27.3655C28.1011 2.83448 28.6161 3.05517 28.9103 3.49655C29.2536 3.93793 29.4253 4.42835 29.4253 4.96782C29.4253 5.45824 29.2536 5.92414 28.9103 6.36552C28.6161 6.8069 28.1011 7.02759 27.3655 7.02759H10.2989V20.0483H26.7034C27.4391 20.0483 27.9785 20.269 28.3218 20.7103C28.6651 21.1517 28.8368 21.6421 28.8368 22.1816C28.8368 22.672 28.6406 23.1379 28.2483 23.5793C27.8559 23.9716 27.341 24.1678 26.7034 24.1678H10.2989V40.5724C10.2989 41.308 10.1027 41.872 9.71034 42.2644C8.43525 43.1962 7.2092 43.2452 6.03218 42.4115C5.54176 42.0682 5.24751 41.4552 5.14943 40.5724V5.26207ZM63.4482 28.2138C63.4482 29.2437 62.8597 29.8077 61.6826 29.9057H41.5263C41.7225 34.908 43.6842 38.1448 47.4114 39.6161C48.4413 39.9594 49.6183 40.131 50.9424 40.131C53.6888 40.131 56.4842 39.1257 59.3286 37.1149C60.2114 36.6245 60.947 36.6736 61.5355 37.2621C61.8298 37.5563 61.9279 37.8506 61.8298 38.1448C61.8298 38.8314 61.6581 39.3218 61.3148 39.6161C58.6175 42.3134 55.062 43.6375 50.6482 43.5885C46.6267 43.5885 43.3899 42.2889 40.9378 39.6897C38.1915 36.9923 36.8183 33.4368 36.8183 29.023C36.8183 24.9525 37.9462 21.5931 40.2022 18.9448C42.5562 16.0023 45.8911 14.531 50.2068 14.531C54.5225 14.531 57.8083 15.8307 60.0643 18.4299C62.2221 20.7839 63.3501 24.0452 63.4482 28.2138ZM59.1079 26.8897C58.9608 24.2414 58.1026 22.059 56.5332 20.3425C55.062 18.7732 52.9531 17.9885 50.2068 17.9885C47.8528 17.9885 45.842 18.8713 44.1746 20.6368C42.6543 22.4023 41.8206 24.4866 41.6734 26.8897H59.1079ZM92.1159 38.3655C89.6638 41.8475 86.3289 43.5885 82.1113 43.5885C78.286 43.5885 75.2944 42.0682 73.1365 39.0276C71.2729 36.2812 70.3411 32.9464 70.3411 29.023C70.3411 22.4513 72.5235 18.0375 76.8883 15.7816C78.3595 14.9479 79.8308 14.531 81.3021 14.531C82.8224 14.531 84.0729 14.6291 85.0538 14.8253C86.0346 14.9724 86.9664 15.2912 87.8492 15.7816C89.7128 16.7134 91.135 17.9885 92.1159 19.6069V5.04138C92.1159 4.30575 92.3611 3.7908 92.8515 3.49655C93.3419 3.15326 93.8814 2.98161 94.4699 2.98161C95.0584 2.98161 95.5733 3.15326 96.0147 3.49655C96.4561 3.7908 96.6768 4.30575 96.6768 5.04138V40.9402C96.6768 41.6268 96.4316 42.1418 95.9411 42.4851C95.4507 42.8284 95.0093 43 94.617 43C94.2247 43 93.8814 42.9755 93.5871 42.9264C93.3419 42.8284 93.0967 42.6567 92.8515 42.4115C92.3611 42.0682 92.1159 41.5778 92.1159 40.9402V38.3655ZM82.994 40.131C88.9772 40.131 91.9687 36.2812 91.9687 28.5816C91.9687 23.6284 90.4729 20.3916 87.4814 18.8713C86.3534 18.2828 85.0047 17.9885 83.4354 17.9885C81.866 17.9885 80.5664 18.3073 79.5365 18.9448C78.5067 19.5333 77.6484 20.3425 76.9618 21.3724C75.7358 23.2851 75.1228 25.7126 75.1228 28.6552C75.1228 33.0199 76.1526 36.2322 78.2124 38.292C79.3894 39.518 80.9833 40.131 82.994 40.131ZM126.536 38.3655C124.084 41.8475 120.749 43.5885 116.531 43.5885C112.706 43.5885 109.714 42.0682 107.557 39.0276C105.693 36.2812 104.761 32.9464 104.761 29.023C104.761 22.4513 106.944 18.0375 111.308 15.7816C112.78 14.9479 114.251 14.531 115.722 14.531C117.242 14.531 118.493 14.6291 119.474 14.8253C120.455 14.9724 121.386 15.2912 122.269 15.7816C124.133 16.7134 125.555 17.9885 126.536 19.6069V5.04138C126.536 4.30575 126.781 3.7908 127.271 3.49655C127.762 3.15326 128.301 2.98161 128.89 2.98161C129.478 2.98161 129.993 3.15326 130.435 3.49655C130.876 3.7908 131.097 4.30575 131.097 5.04138V40.9402C131.097 41.6268 130.852 42.1418 130.361 42.4851C129.871 42.8284 129.429 43 129.037 43C128.645 43 128.301 42.9755 128.007 42.9264C127.762 42.8284 127.517 42.6567 127.271 42.4115C126.781 42.0682 126.536 41.5778 126.536 40.9402V38.3655ZM117.414 40.131C123.397 40.131 126.389 36.2812 126.389 28.5816C126.389 23.6284 124.893 20.3916 121.901 18.8713C120.773 18.2828 119.425 17.9885 117.855 17.9885C116.286 17.9885 114.986 18.3073 113.957 18.9448C112.927 19.5333 112.068 20.3425 111.382 21.3724C110.156 23.2851 109.543 25.7126 109.543 28.6552C109.543 33.0199 110.573 36.2322 112.632 38.292C113.809 39.518 115.403 40.131 117.414 40.131ZM146.39 5.33563C146.39 6.12031 146.121 6.75785 145.581 7.24828C145.042 7.7387 144.282 7.98391 143.301 7.98391C142.32 7.98391 141.56 7.7387 141.02 7.24828C140.481 6.75785 140.211 6.12031 140.211 5.33563C140.211 4.64904 140.481 4.06054 141.02 3.57011C141.56 3.07969 142.32 2.83448 143.301 2.83448C144.331 2.83448 145.091 3.07969 145.581 3.57011C146.121 4.06054 146.39 4.64904 146.39 5.33563ZM141.094 17.4C141.094 16.6644 141.339 16.1004 141.829 15.708C142.32 15.2667 142.761 15.046 143.154 15.046C143.546 15.046 143.865 15.1195 144.11 15.2667C144.355 15.3648 144.6 15.5364 144.846 15.7816C145.385 16.1249 145.655 16.6644 145.655 17.4V40.7931C145.655 41.5287 145.409 42.0927 144.919 42.4851C144.429 42.8284 143.889 43 143.301 43C142.712 43 142.197 42.8284 141.756 42.4851C141.314 42.0927 141.094 41.5287 141.094 40.7931V17.4Z" fill="#42BDE6"/>
<path d="M171.893 46.531C171.501 47.5119 170.912 47.9533 170.127 47.8552C169.588 47.8552 169.097 47.708 168.656 47.4138C168.264 47.1195 168.068 46.7762 168.068 46.3839C168.068 46.0406 168.117 45.6973 168.215 45.354L181.75 4.15862C182.045 3.17778 182.731 2.7364 183.81 2.83448C184.301 2.83448 184.742 2.98161 185.134 3.27586C185.527 3.57012 185.723 3.91341 185.723 4.30575C185.723 4.69808 185.698 5.04138 185.649 5.33563L171.893 46.531Z" fill="#839C9F"/>
<path d="M202.473 18.0621C196.98 18.0621 194.234 21.7157 194.234 29.023C194.234 32.4559 195.092 35.1533 196.809 37.1149C198.28 38.8314 200.192 39.7142 202.546 39.7632C204.95 39.7632 206.985 38.8559 208.652 37.0414C210.418 35.1287 211.3 32.505 211.3 29.1701C211.3 24.1678 209.731 20.7839 206.592 19.0184C205.514 18.3808 204.14 18.0621 202.473 18.0621ZM201.296 14.531C206.102 14.531 209.486 16.3701 211.448 20.0483V16.9586C211.546 16.3701 211.791 15.9042 212.183 15.5609C212.576 15.2176 213.041 15.046 213.581 15.046C214.12 15.046 214.611 15.2421 215.052 15.6345C215.494 16.0268 215.714 16.5418 215.714 17.1793V43.5885C215.714 47.4138 214.488 50.2582 212.036 52.1218C209.829 53.8874 206.641 54.7701 202.473 54.7701C198.746 54.7701 195.95 54.1326 194.087 52.8575C192.615 51.7785 191.88 50.8958 191.88 50.2092C191.88 49.7188 192.027 49.3019 192.321 48.9586C192.664 48.6644 193.032 48.5172 193.425 48.5172C193.866 48.5172 194.283 48.6398 194.675 48.8851C195.068 49.1793 195.533 49.449 196.073 49.6943C196.612 49.9395 197.152 50.1602 197.691 50.3563C199.114 50.8467 200.56 51.092 202.032 51.092C203.552 51.092 204.851 50.9693 205.93 50.7241C207.058 50.4789 208.015 50.0621 208.799 49.4736C210.467 48.3946 211.3 46.531 211.3 43.8828V37.4828C209.878 40.1801 207.622 41.9211 204.533 42.7057C203.552 42.9019 202.596 43 201.664 43C197.593 43 194.479 41.6023 192.321 38.8069C190.31 36.3057 189.305 33.0935 189.305 29.1701C189.305 25.0015 190.31 21.5931 192.321 18.9448C194.43 16.0023 197.422 14.531 201.296 14.531ZM249.546 40.9402C249.546 41.6268 249.276 42.1418 248.737 42.4851C248.246 42.8284 247.805 43 247.412 43C247.069 43 246.75 42.9755 246.456 42.9264C246.162 42.8284 245.917 42.6567 245.72 42.4115C245.23 42.0682 244.985 41.5778 244.985 40.9402V38.3655C243.808 40.9648 241.65 42.5831 238.511 43.2207C237.53 43.4659 236.476 43.5885 235.348 43.5885C234.22 43.5885 233.043 43.3923 231.817 43C230.591 42.6077 229.537 41.9701 228.654 41.0874C226.692 39.2238 225.711 36.4284 225.711 32.7011V17.2529C225.711 16.5663 225.932 16.0268 226.373 15.6345C226.815 15.2421 227.33 15.046 227.918 15.046C228.507 15.046 229.022 15.2421 229.463 15.6345C229.904 16.0268 230.125 16.5663 230.125 17.2529V33.069C230.125 35.7172 230.665 37.5563 231.743 38.5862C232.822 39.6161 234.441 40.131 236.599 40.131C240.228 40.131 242.729 38.6598 244.102 35.7172C244.642 34.6874 244.936 33.5103 244.985 32.1862V17.2529C244.985 16.5663 245.23 16.0268 245.72 15.6345C246.211 15.2421 246.75 15.046 247.339 15.046C247.927 15.046 248.442 15.2421 248.884 15.6345C249.325 16.0268 249.546 16.5663 249.546 17.2529V40.9402ZM265.365 5.33563C265.365 6.12031 265.096 6.75785 264.556 7.24828C264.017 7.7387 263.257 7.98391 262.276 7.98391C261.295 7.98391 260.535 7.7387 259.995 7.24828C259.456 6.75785 259.186 6.12031 259.186 5.33563C259.186 4.64904 259.456 4.06054 259.995 3.57011C260.535 3.07969 261.295 2.83448 262.276 2.83448C263.306 2.83448 264.066 3.07969 264.556 3.57011C265.096 4.06054 265.365 4.64904 265.365 5.33563ZM260.069 17.4C260.069 16.6644 260.314 16.1004 260.804 15.708C261.295 15.2667 261.736 15.046 262.129 15.046C262.521 15.046 262.84 15.1195 263.085 15.2667C263.33 15.3648 263.575 15.5364 263.821 15.7816C264.36 16.1249 264.63 16.6644 264.63 17.4V40.7931C264.63 41.5287 264.385 42.0927 263.894 42.4851C263.404 42.8284 262.864 43 262.276 43C261.687 43 261.172 42.8284 260.731 42.4851C260.289 42.0927 260.069 41.5287 260.069 40.7931V17.4ZM295.101 38.3655C292.649 41.8475 289.314 43.5885 285.096 43.5885C281.271 43.5885 278.279 42.0682 276.122 39.0276C274.258 36.2812 273.326 32.9464 273.326 29.023C273.326 22.4513 275.509 18.0375 279.873 15.7816C281.345 14.9479 282.816 14.531 284.287 14.531C285.807 14.531 287.058 14.6291 288.039 14.8253C289.02 14.9724 289.951 15.2912 290.834 15.7816C292.698 16.7134 294.12 17.9885 295.101 19.6069V5.04138C295.101 4.30575 295.346 3.7908 295.837 3.49655C296.327 3.15326 296.866 2.98161 297.455 2.98161C298.043 2.98161 298.558 3.15326 299 3.49655C299.441 3.7908 299.662 4.30575 299.662 5.04138V40.9402C299.662 41.6268 299.417 42.1418 298.926 42.4851C298.436 42.8284 297.994 43 297.602 43C297.21 43 296.866 42.9755 296.572 42.9264C296.327 42.8284 296.082 42.6567 295.837 42.4115C295.346 42.0682 295.101 41.5778 295.101 40.9402V38.3655ZM285.979 40.131C291.962 40.131 294.954 36.2812 294.954 28.5816C294.954 23.6284 293.458 20.3916 290.466 18.8713C289.338 18.2828 287.99 17.9885 286.42 17.9885C284.851 17.9885 283.551 18.3073 282.522 18.9448C281.492 19.5333 280.633 20.3425 279.947 21.3724C278.721 23.2851 278.108 25.7126 278.108 28.6552C278.108 33.0199 279.138 36.2322 281.197 38.292C282.374 39.518 283.968 40.131 285.979 40.131ZM334.523 28.2138C334.523 29.2437 333.935 29.8077 332.758 29.9057H312.601C312.797 34.908 314.759 38.1448 318.486 39.6161C319.516 39.9594 320.693 40.131 322.017 40.131C324.764 40.131 327.559 39.1257 330.404 37.1149C331.286 36.6245 332.022 36.6736 332.611 37.2621C332.905 37.5563 333.003 37.8506 332.905 38.1448C332.905 38.8314 332.733 39.3218 332.39 39.6161C329.693 42.3134 326.137 43.6375 321.723 43.5885C317.702 43.5885 314.465 42.2889 312.013 39.6897C309.266 36.9923 307.893 33.4368 307.893 29.023C307.893 24.9525 309.021 21.5931 311.277 18.9448C313.631 16.0023 316.966 14.531 321.282 14.531C325.597 14.531 328.883 15.8307 331.139 18.4299C333.297 20.7839 334.425 24.0452 334.523 28.2138ZM330.183 26.8897C330.036 24.2414 329.178 22.059 327.608 20.3425C326.137 18.7732 324.028 17.9885 321.282 17.9885C318.928 17.9885 316.917 18.8713 315.25 20.6368C313.729 22.4023 312.896 24.4866 312.748 26.8897H330.183Z" fill="#88C0D0"/>
</g>
<defs>
<clipPath id="clip0_17_3">
<rect width="337" height="58" fill="white"/>
</clipPath>
</defs>
</svg>
