<svg width="232" height="85" viewBox="0 0 232 85" fill="none" xmlns="http://www.w3.org/2000/svg">
<path d="M61.8621 25.6966C61.8621 25.1448 62.046 24.7034 62.4138 24.3724C62.7816 24.0414 63.223 23.8759 63.7379 23.8759H78.5241C79.0759 23.8759 79.4621 24.0414 79.6828 24.3724C79.9402 24.7034 80.069 25.0713 80.069 25.4759C80.069 25.8437 79.9402 26.1931 79.6828 26.5241C79.4621 26.8552 79.0759 27.0207 78.5241 27.0207H65.7241V36.7862H78.0276C78.5793 36.7862 78.9839 36.9517 79.2414 37.2828C79.4988 37.6138 79.6276 37.9816 79.6276 38.3862C79.6276 38.754 79.4805 39.1034 79.1862 39.4345C78.892 39.7287 78.5057 39.8759 78.0276 39.8759H65.7241V52.1793C65.7241 52.731 65.577 53.154 65.2828 53.4483C64.3264 54.1471 63.4069 54.1839 62.5241 53.5586C62.1563 53.3011 61.9356 52.8414 61.8621 52.1793V25.6966ZM105.586 42.9103C105.586 43.6828 105.145 44.1057 104.262 44.1793H89.1447C89.2919 47.931 90.7631 50.3586 93.5585 51.4621C94.3309 51.7195 95.2137 51.8483 96.2068 51.8483C98.2666 51.8483 100.363 51.0943 102.496 49.5862C103.159 49.2184 103.71 49.2552 104.152 49.6966C104.372 49.9172 104.446 50.1379 104.372 50.3586C104.372 50.8736 104.244 51.2414 103.986 51.4621C101.963 53.4851 99.2965 54.4782 95.9861 54.4414C92.97 54.4414 90.5424 53.4667 88.7034 51.5172C86.6436 49.4943 85.6137 46.8276 85.6137 43.5172C85.6137 40.4644 86.4597 37.9448 88.1516 35.9586C89.9172 33.7517 92.4183 32.6483 95.6551 32.6483C98.8919 32.6483 101.356 33.623 103.048 35.5724C104.667 37.3379 105.513 39.7839 105.586 42.9103ZM102.331 41.9172C102.221 39.931 101.577 38.2943 100.4 37.0069C99.2965 35.8299 97.7149 35.2414 95.6551 35.2414C93.8896 35.2414 92.3815 35.9034 91.1309 37.2276C89.9907 38.5517 89.3654 40.1149 89.2551 41.9172H102.331ZM127.087 50.5241C125.248 53.1356 122.747 54.4414 119.583 54.4414C116.714 54.4414 114.471 53.3011 112.852 51.0207C111.455 48.9609 110.756 46.4598 110.756 43.5172C110.756 38.5885 112.393 35.2782 115.666 33.5862C116.77 32.9609 117.873 32.6483 118.977 32.6483C120.117 32.6483 121.055 32.7218 121.79 32.869C122.526 32.9793 123.225 33.2184 123.887 33.5862C125.285 34.2851 126.351 35.2414 127.087 36.4552V25.531C127.087 24.9793 127.271 24.5931 127.639 24.3724C128.006 24.1149 128.411 23.9862 128.852 23.9862C129.294 23.9862 129.68 24.1149 130.011 24.3724C130.342 24.5931 130.508 24.9793 130.508 25.531V52.4552C130.508 52.9701 130.324 53.3563 129.956 53.6138C129.588 53.8713 129.257 54 128.963 54C128.669 54 128.411 53.9816 128.19 53.9448C128.006 53.8713 127.823 53.7425 127.639 53.5586C127.271 53.3011 127.087 52.9333 127.087 52.4552V50.5241ZM120.246 51.8483C124.733 51.8483 126.977 48.9609 126.977 43.1862C126.977 39.4713 125.855 37.0437 123.611 35.9034C122.765 35.4621 121.754 35.2414 120.577 35.2414C119.4 35.2414 118.425 35.4805 117.652 35.9586C116.88 36.4 116.236 37.0069 115.721 37.7793C114.802 39.2138 114.342 41.0345 114.342 43.2414C114.342 46.5149 115.114 48.9241 116.659 50.469C117.542 51.3885 118.737 51.8483 120.246 51.8483ZM152.902 50.5241C151.063 53.1356 148.562 54.4414 145.398 54.4414C142.529 54.4414 140.286 53.3011 138.667 51.0207C137.27 48.9609 136.571 46.4598 136.571 43.5172C136.571 38.5885 138.208 35.2782 141.481 33.5862C142.585 32.9609 143.688 32.6483 144.792 32.6483C145.932 32.6483 146.87 32.7218 147.605 32.869C148.341 32.9793 149.04 33.2184 149.702 33.5862C151.1 34.2851 152.166 35.2414 152.902 36.4552V25.531C152.902 24.9793 153.086 24.5931 153.454 24.3724C153.821 24.1149 154.226 23.9862 154.667 23.9862C155.109 23.9862 155.495 24.1149 155.826 24.3724C156.157 24.5931 156.323 24.9793 156.323 25.531V52.4552C156.323 52.9701 156.139 53.3563 155.771 53.6138C155.403 53.8713 155.072 54 154.778 54C154.484 54 154.226 53.9816 154.005 53.9448C153.821 53.8713 153.638 53.7425 153.454 53.5586C153.086 53.3011 152.902 52.9333 152.902 52.4552V50.5241ZM146.061 51.8483C150.548 51.8483 152.792 48.9609 152.792 43.1862C152.792 39.4713 151.67 37.0437 149.426 35.9034C148.58 35.4621 147.569 35.2414 146.392 35.2414C145.215 35.2414 144.24 35.4805 143.467 35.9586C142.695 36.4 142.051 37.0069 141.536 37.7793C140.617 39.2138 140.157 41.0345 140.157 43.2414C140.157 46.5149 140.929 48.9241 142.474 50.469C143.357 51.3885 144.552 51.8483 146.061 51.8483ZM167.793 25.7517C167.793 26.3402 167.59 26.8184 167.186 27.1862C166.781 27.554 166.211 27.7379 165.476 27.7379C164.74 27.7379 164.17 27.554 163.765 27.1862C163.361 26.8184 163.158 26.3402 163.158 25.7517C163.158 25.2368 163.361 24.7954 163.765 24.4276C164.17 24.0598 164.74 23.8759 165.476 23.8759C166.248 23.8759 166.818 24.0598 167.186 24.4276C167.59 24.7954 167.793 25.2368 167.793 25.7517ZM163.82 34.8C163.82 34.2483 164.004 33.8253 164.372 33.531C164.74 33.2 165.071 33.0345 165.365 33.0345C165.659 33.0345 165.899 33.0897 166.082 33.2C166.266 33.2736 166.45 33.4023 166.634 33.5862C167.039 33.8437 167.241 34.2483 167.241 34.8V52.3448C167.241 52.8966 167.057 53.3195 166.689 53.6138C166.321 53.8713 165.917 54 165.476 54C165.034 54 164.648 53.8713 164.317 53.6138C163.986 53.3195 163.82 52.8966 163.82 52.3448V34.8Z" fill="#42BDE6"/>
<path d="M3.47586 74.9379L0.434483 67.9862C0.393103 67.9034 0.372414 67.8207 0.372414 67.7379C0.372414 67.6552 0.393103 67.5793 0.434483 67.5103C0.475862 67.4276 0.524138 67.3724 0.57931 67.3448C0.744828 67.2345 0.903448 67.1655 1.05517 67.1379C1.34483 67.1379 1.55172 67.2759 1.67586 67.5517L4.13793 73.5103L6.57931 67.5517C6.70345 67.2759 6.86207 67.1379 7.05517 67.1379C7.26207 67.1379 7.42759 67.2 7.55172 67.3241C7.68966 67.4345 7.75862 67.5517 7.75862 67.6759C7.75862 67.8 7.73793 67.9034 7.69655 67.9862L3.72414 77.6483C3.6 77.9241 3.4069 78.0621 3.14483 78.0621C2.97931 78.0621 2.84138 78.0207 2.73103 77.9379C2.56552 77.8 2.48276 77.669 2.48276 77.5448C2.48276 77.4207 2.50345 77.331 2.54483 77.2759L3.47586 74.9379ZM9.36143 71.0897C9.36143 70.5931 9.43729 70.0966 9.58902 69.6C9.75453 69.1034 10.0028 68.6552 10.3338 68.2552C11.0235 67.4138 12.0028 66.9931 13.2718 66.9931C14.5407 66.9931 15.5201 67.4138 16.2097 68.2552C16.858 69.0552 17.1821 69.9931 17.1821 71.069C17.1821 72.1586 16.858 73.0966 16.2097 73.8828C15.5201 74.7379 14.5407 75.1655 13.2718 75.1655C12.0028 75.1655 11.0235 74.7379 10.3338 73.8828C9.68557 73.1103 9.36143 72.1793 9.36143 71.0897ZM10.7063 71.0897C10.7063 71.4207 10.7476 71.7724 10.8304 72.1448C10.9269 72.5172 11.0925 72.8621 11.3269 73.1793C11.7959 73.8552 12.4442 74.1931 13.2718 74.1931C14.1407 74.1931 14.789 73.8552 15.2166 73.1793C15.6166 72.5448 15.8166 71.8414 15.8166 71.069C15.8166 70.269 15.6166 69.5793 15.2166 69C14.7752 68.3103 14.1269 67.9655 13.2718 67.9655C12.4442 67.9655 11.7959 68.3103 11.3269 69C10.9132 69.5655 10.7063 70.2621 10.7063 71.0897ZM26.3041 74.4207C26.3041 74.6138 26.2283 74.7586 26.0765 74.8552C25.9386 74.9517 25.8145 75 25.7041 75C25.6076 75 25.5179 74.9931 25.4352 74.9793C25.3524 74.9517 25.2834 74.9034 25.2283 74.8345C25.0903 74.7379 25.0214 74.6 25.0214 74.4207V73.6966C24.6903 74.4276 24.0834 74.8828 23.2007 75.0621C22.9248 75.131 22.6283 75.1655 22.311 75.1655C21.9938 75.1655 21.6627 75.1103 21.3179 75C20.9731 74.8897 20.6765 74.7103 20.4283 74.4621C19.8765 73.9379 19.6007 73.1517 19.6007 72.1034V67.7586C19.6007 67.5655 19.6627 67.4138 19.7869 67.3034C19.911 67.1931 20.0558 67.1379 20.2214 67.1379C20.3869 67.1379 20.5317 67.1931 20.6558 67.3034C20.78 67.4138 20.8421 67.5655 20.8421 67.7586V72.2069C20.8421 72.9517 20.9938 73.469 21.2972 73.7586C21.6007 74.0483 22.0558 74.1931 22.6627 74.1931C23.6834 74.1931 24.3869 73.7793 24.7731 72.9517C24.9248 72.6621 25.0076 72.331 25.0214 71.9586V67.7586C25.0214 67.5655 25.0903 67.4138 25.2283 67.3034C25.3662 67.1931 25.5179 67.1379 25.6834 67.1379C25.849 67.1379 25.9938 67.1931 26.1179 67.3034C26.2421 67.4138 26.3041 67.5655 26.3041 67.7586V74.4207ZM30.5051 68.4621C30.8361 67.4828 31.5603 66.9931 32.6775 66.9931C32.8844 66.9931 33.0361 67.0552 33.1327 67.1793C33.243 67.2897 33.2982 67.4138 33.2982 67.5517C33.2982 67.6759 33.243 67.8 33.1327 67.9241C33.0361 68.0345 32.8499 68.0897 32.5741 68.0897C32.2982 68.0897 32.0223 68.1448 31.7465 68.2552C31.4706 68.3655 31.243 68.5241 31.0637 68.731C30.6913 69.1862 30.5051 69.7862 30.5051 70.531V74.4207C30.5051 74.6138 30.4361 74.7586 30.2982 74.8552C30.1603 74.9517 30.0361 75 29.9258 75C29.8154 75 29.7258 74.9931 29.6568 74.9793C29.5879 74.9517 29.5189 74.9034 29.4499 74.8345C29.3258 74.7517 29.2637 74.6138 29.2637 74.4207V67.7586C29.2637 67.5793 29.3258 67.4345 29.4499 67.3241C29.5741 67.2 29.7258 67.1379 29.9051 67.1379C30.0982 67.1379 30.243 67.2 30.3396 67.3241C30.4499 67.4345 30.5051 67.5793 30.5051 67.7586V68.4621ZM94.6564 68.0897V74.3793C94.6564 74.5862 94.5875 74.7448 94.4495 74.8552C94.3254 74.9517 94.2013 75 94.0771 75C93.953 75 93.8495 74.9931 93.7668 74.9793C93.6978 74.9517 93.6358 74.9034 93.5806 74.8345C93.4427 74.7379 93.3806 74.5862 93.3944 74.3793V68.0897H92.2978C92.1323 68.0897 92.0082 68.0414 91.9254 67.9448C91.8427 67.8483 91.8013 67.7379 91.8013 67.6138C91.8013 67.5172 91.8427 67.4138 91.9254 67.3034C92.0082 67.1931 92.1323 67.1379 92.2978 67.1379H93.3944V66.269C93.3944 64.8483 93.7737 63.9793 94.5323 63.6621C94.7806 63.5655 95.0289 63.5172 95.2771 63.5172C95.7185 63.5172 96.1668 63.5931 96.622 63.7448C96.8289 63.8276 96.9323 63.9655 96.9323 64.1586C96.9323 64.269 96.8978 64.3793 96.8289 64.4897C96.7599 64.5862 96.6633 64.6345 96.5392 64.6345C96.4289 64.6345 96.3392 64.6345 96.2702 64.6345C96.2151 64.6207 96.1599 64.6 96.1047 64.5724C95.953 64.5448 95.7806 64.531 95.5875 64.531C95.4082 64.531 95.2564 64.5724 95.1323 64.6552C95.0082 64.7241 94.9047 64.8414 94.822 65.0069C94.7116 65.269 94.6564 65.8966 94.6564 66.8897V67.1379H96.0013C96.1668 67.1379 96.2909 67.1862 96.3737 67.2828C96.4702 67.3793 96.5185 67.4897 96.5185 67.6138C96.5185 67.7379 96.4702 67.8483 96.3737 67.9448C96.2909 68.0414 96.1668 68.0897 96.0013 68.0897H94.6564ZM98.1774 71.0897C98.1774 70.5931 98.2532 70.0966 98.405 69.6C98.5705 69.1034 98.8187 68.6552 99.1498 68.2552C99.8394 67.4138 100.819 66.9931 102.088 66.9931C103.357 66.9931 104.336 67.4138 105.026 68.2552C105.674 69.0552 105.998 69.9931 105.998 71.069C105.998 72.1586 105.674 73.0966 105.026 73.8828C104.336 74.7379 103.357 75.1655 102.088 75.1655C100.819 75.1655 99.8394 74.7379 99.1498 73.8828C98.5015 73.1103 98.1774 72.1793 98.1774 71.0897ZM99.5222 71.0897C99.5222 71.4207 99.5636 71.7724 99.6463 72.1448C99.7429 72.5172 99.9084 72.8621 100.143 73.1793C100.612 73.8552 101.26 74.1931 102.088 74.1931C102.957 74.1931 103.605 73.8552 104.033 73.1793C104.433 72.5448 104.633 71.8414 104.633 71.069C104.633 70.269 104.433 69.5793 104.033 69C103.591 68.3103 102.943 67.9655 102.088 67.9655C101.26 67.9655 100.612 68.3103 100.143 69C99.7291 69.5655 99.5222 70.2621 99.5222 71.0897ZM109.658 68.4621C109.989 67.4828 110.713 66.9931 111.83 66.9931C112.037 66.9931 112.189 67.0552 112.286 67.1793C112.396 67.2897 112.451 67.4138 112.451 67.5517C112.451 67.6759 112.396 67.8 112.286 67.9241C112.189 68.0345 112.003 68.0897 111.727 68.0897C111.451 68.0897 111.175 68.1448 110.899 68.2552C110.624 68.3655 110.396 68.5241 110.217 68.731C109.844 69.1862 109.658 69.7862 109.658 70.531V74.4207C109.658 74.6138 109.589 74.7586 109.451 74.8552C109.313 74.9517 109.189 75 109.079 75C108.968 75 108.879 74.9931 108.81 74.9793C108.741 74.9517 108.672 74.9034 108.603 74.8345C108.479 74.7517 108.417 74.6138 108.417 74.4207V67.7586C108.417 67.5793 108.479 67.4345 108.603 67.3241C108.727 67.2 108.879 67.1379 109.058 67.1379C109.251 67.1379 109.396 67.2 109.492 67.3241C109.603 67.4345 109.658 67.5793 109.658 67.7586V68.4621ZM119.459 64.3862C119.459 64.1793 119.528 64.0138 119.666 63.8897C119.804 63.7655 119.97 63.7034 120.163 63.7034H125.708C125.915 63.7034 126.059 63.7655 126.142 63.8897C126.239 64.0138 126.287 64.1517 126.287 64.3034C126.287 64.4414 126.239 64.5724 126.142 64.6966C126.059 64.8207 125.915 64.8828 125.708 64.8828H120.908V68.5448H125.521C125.728 68.5448 125.88 68.6069 125.977 68.731C126.073 68.8552 126.121 68.9931 126.121 69.1448C126.121 69.2828 126.066 69.4138 125.956 69.5379C125.846 69.6483 125.701 69.7034 125.521 69.7034H120.908V74.3172C120.908 74.5241 120.852 74.6828 120.742 74.7931C120.384 75.0552 120.039 75.069 119.708 74.8345C119.57 74.7379 119.487 74.5655 119.459 74.3172V64.3862ZM129.711 75C129.421 75 129.201 74.8621 129.049 74.5862C129.021 74.5034 129.015 74.4138 129.028 74.3172V64.4069C129.028 64.131 129.159 63.9172 129.421 63.7655C129.504 63.7241 129.601 63.7034 129.711 63.7034H132.401C135.366 63.7034 137.256 64.7793 138.07 66.931C138.332 67.6345 138.456 68.4483 138.442 69.3724C138.442 71.2207 137.918 72.6207 136.87 73.5724C135.821 74.5241 134.346 75 132.442 75H129.711ZM130.415 73.9241H132.608C134.815 73.9241 136.18 73.0276 136.704 71.2345C136.87 70.6828 136.952 70.0414 136.952 69.3103C136.952 68.5793 136.842 67.9241 136.621 67.3448C136.401 66.7655 136.083 66.2828 135.67 65.8966C134.883 65.1793 133.725 64.8207 132.194 64.8207H130.415V73.9241ZM150.549 74.131C150.563 74.2138 150.57 74.2966 150.57 74.3793C150.57 74.4621 150.549 74.5448 150.508 74.6276C150.467 74.7103 150.412 74.7724 150.343 74.8138C150.205 74.9379 150.053 75 149.887 75C149.556 75 149.336 74.8552 149.225 74.5655L148.212 72.0621H142.625L141.632 74.5655C141.536 74.8552 141.343 75 141.053 75C140.763 75 140.543 74.8759 140.391 74.6276C140.349 74.5448 140.329 74.469 140.329 74.4C140.329 74.331 140.349 74.2414 140.391 74.131L144.136 64.9448C144.412 64.2552 144.729 63.8621 145.087 63.7655C145.184 63.7517 145.308 63.731 145.46 63.7034C145.736 63.7034 145.943 63.7655 146.08 63.8897C146.301 64.0552 146.522 64.4069 146.743 64.9448L150.549 74.131ZM143.018 70.9655H147.839L145.418 64.8828L143.018 70.9655ZM163.058 68.4828C163.058 68.4828 163.058 68.2276 163.058 67.7172C163.071 67.5241 163.14 67.3793 163.265 67.2828C163.389 67.1862 163.52 67.1379 163.658 67.1379C163.809 67.1379 163.954 67.1931 164.092 67.3034C164.23 67.4138 164.299 67.5586 164.299 67.7379V77.4C164.299 77.5931 164.23 77.7379 164.092 77.8345C163.954 77.931 163.802 77.9793 163.637 77.9793C163.471 77.9793 163.327 77.931 163.202 77.8345C163.078 77.7379 163.016 77.5931 163.016 77.4V73.6966C162.727 74.1793 162.327 74.5517 161.816 74.8138C161.334 75.0483 160.802 75.1655 160.223 75.1655C159.658 75.1655 159.161 75.0552 158.734 74.8345C158.32 74.6138 157.982 74.3172 157.72 73.9448C157.168 73.2138 156.892 72.269 156.892 71.1103C156.892 70.0207 157.154 69.069 157.678 68.2552C158.258 67.4138 159.085 66.9931 160.161 66.9931C161.127 66.9931 161.927 67.2621 162.561 67.8C162.74 68.0069 162.906 68.2345 163.058 68.4828ZM162.416 73.2621C162.623 72.9724 162.775 72.6414 162.871 72.269C162.968 71.8828 163.016 71.4828 163.016 71.069C163.016 70.6552 162.975 70.2552 162.892 69.869C162.809 69.4828 162.671 69.1517 162.478 68.8759C162.092 68.2828 161.43 67.9793 160.492 67.9655C159.692 67.9655 159.099 68.3034 158.713 68.9793C158.396 69.5172 158.237 70.2138 158.237 71.069C158.237 72.4483 158.63 73.4 159.416 73.9241C159.706 74.1034 160.071 74.1931 160.513 74.1931C160.968 74.1931 161.347 74.1103 161.651 73.9448C161.954 73.7655 162.209 73.5379 162.416 73.2621ZM173.814 74.4207C173.814 74.6138 173.738 74.7586 173.587 74.8552C173.449 74.9517 173.324 75 173.214 75C173.118 75 173.028 74.9931 172.945 74.9793C172.862 74.9517 172.793 74.9034 172.738 74.8345C172.6 74.7379 172.531 74.6 172.531 74.4207V73.6966C172.2 74.4276 171.593 74.8828 170.711 75.0621C170.435 75.131 170.138 75.1655 169.821 75.1655C169.504 75.1655 169.173 75.1103 168.828 75C168.483 74.8897 168.187 74.7103 167.938 74.4621C167.387 73.9379 167.111 73.1517 167.111 72.1034V67.7586C167.111 67.5655 167.173 67.4138 167.297 67.3034C167.421 67.1931 167.566 67.1379 167.731 67.1379C167.897 67.1379 168.042 67.1931 168.166 67.3034C168.29 67.4138 168.352 67.5655 168.352 67.7586V72.2069C168.352 72.9517 168.504 73.469 168.807 73.7586C169.111 74.0483 169.566 74.1931 170.173 74.1931C171.193 74.1931 171.897 73.7793 172.283 72.9517C172.435 72.6621 172.518 72.331 172.531 71.9586V67.7586C172.531 67.5655 172.6 67.4138 172.738 67.3034C172.876 67.1931 173.028 67.1379 173.193 67.1379C173.359 67.1379 173.504 67.1931 173.628 67.3034C173.752 67.4138 173.814 67.5655 173.814 67.7586V74.4207ZM183.767 70.8414C183.767 71.131 183.601 71.2897 183.27 71.3172H177.601C177.656 72.7241 178.208 73.6345 179.256 74.0483C179.546 74.1448 179.877 74.1931 180.25 74.1931C181.022 74.1931 181.808 73.9103 182.608 73.3448C182.856 73.2069 183.063 73.2207 183.229 73.3862C183.312 73.469 183.339 73.5517 183.312 73.6345C183.312 73.8276 183.263 73.9655 183.167 74.0483C182.408 74.8069 181.408 75.1793 180.167 75.1655C179.036 75.1655 178.125 74.8 177.436 74.069C176.663 73.3103 176.277 72.3103 176.277 71.069C176.277 69.9241 176.594 68.9793 177.229 68.2345C177.891 67.4069 178.829 66.9931 180.043 66.9931C181.256 66.9931 182.181 67.3586 182.815 68.0897C183.422 68.7517 183.739 69.669 183.767 70.8414ZM182.546 70.469C182.505 69.7241 182.263 69.1103 181.822 68.6276C181.408 68.1862 180.815 67.9655 180.043 67.9655C179.381 67.9655 178.815 68.2138 178.346 68.7103C177.919 69.2069 177.684 69.7931 177.643 70.469H182.546ZM189.016 67.9655C187.816 67.9655 187.23 68.3448 187.257 69.1034C187.257 69.5862 187.602 69.9172 188.292 70.0966C188.526 70.1655 188.774 70.2276 189.037 70.2828C189.312 70.3379 189.609 70.4069 189.926 70.4897C190.243 70.5586 190.568 70.6552 190.899 70.7793C191.368 70.9172 191.726 71.1517 191.974 71.4828C192.237 71.8 192.368 72.1862 192.368 72.6414C192.368 73.469 192.016 74.1103 191.312 74.5655C190.678 74.9793 189.878 75.1793 188.912 75.1655C188.195 75.1655 187.492 75.0414 186.802 74.7931C186.526 74.6828 186.305 74.5517 186.14 74.4C185.974 74.2483 185.892 74.1034 185.892 73.9655C185.892 73.8276 185.933 73.7172 186.016 73.6345C186.112 73.5517 186.223 73.5103 186.347 73.5103C186.471 73.5103 186.609 73.5448 186.761 73.6138C186.926 73.6828 187.133 73.7586 187.381 73.8414C188.016 74.0759 188.526 74.1931 188.912 74.1931C189.299 74.1931 189.609 74.1724 189.843 74.131C190.078 74.0759 190.292 73.9931 190.485 73.8828C190.899 73.6069 191.105 73.2483 191.105 72.8069C191.105 72.4897 191.002 72.2483 190.795 72.0828C190.602 71.9034 190.347 71.7655 190.03 71.669C189.726 71.5724 189.423 71.4897 189.119 71.4207C188.816 71.3517 188.512 71.2828 188.209 71.2138C187.905 71.1448 187.616 71.0621 187.34 70.9655C187.064 70.869 186.83 70.7379 186.637 70.5724C186.168 70.2414 185.933 69.7724 185.933 69.1655C185.933 68.3931 186.257 67.8345 186.905 67.4897C187.443 67.1586 188.154 66.9931 189.037 66.9931C189.933 66.9931 190.65 67.1241 191.188 67.3862C191.643 67.6207 191.871 67.8828 191.871 68.1724C191.871 68.2828 191.823 68.3724 191.726 68.4414C191.643 68.5103 191.547 68.5448 191.437 68.5448C191.23 68.5448 191.071 68.5103 190.961 68.4414C190.864 68.3724 190.754 68.3034 190.63 68.2345C190.505 68.1655 190.361 68.1172 190.195 68.0897C189.892 68.0069 189.499 67.9655 189.016 67.9655ZM199.007 74.5448C199.007 74.9586 198.518 75.1655 197.538 75.1655C196.807 75.1655 196.29 74.9655 195.987 74.5655C195.656 74.1379 195.476 73.4345 195.449 72.4552V68.1103H194.538C194.373 68.1103 194.242 68.0621 194.145 67.9655C194.049 67.8552 194 67.7448 194 67.6345C194 67.5241 194.042 67.4138 194.125 67.3034C194.207 67.1931 194.345 67.1379 194.538 67.1379H195.531L195.614 64.9034C195.642 64.7379 195.718 64.6138 195.842 64.531C195.966 64.4345 196.097 64.3862 196.235 64.3862C196.373 64.3862 196.49 64.4276 196.587 64.5103C196.683 64.5931 196.731 64.7241 196.731 64.9034V67.1379H198.159C198.325 67.1379 198.449 67.1931 198.531 67.3034C198.628 67.4138 198.676 67.5241 198.676 67.6345C198.676 67.7724 198.628 67.8897 198.531 67.9862C198.449 68.069 198.325 68.1103 198.159 68.1103H196.731V71.7724C196.731 72.7931 196.766 73.4138 196.835 73.6345C196.904 73.8414 197.014 73.9862 197.166 74.069C197.318 74.1517 197.504 74.1931 197.725 74.1931L198.531 74.131C198.683 74.131 198.8 74.1793 198.883 74.2759C198.966 74.3724 199.007 74.4621 199.007 74.5448ZM202.436 64.4069C202.436 64.6276 202.36 64.8069 202.209 64.9448C202.057 65.0828 201.843 65.1517 201.567 65.1517C201.291 65.1517 201.077 65.0828 200.926 64.9448C200.774 64.8069 200.698 64.6276 200.698 64.4069C200.698 64.2138 200.774 64.0483 200.926 63.9103C201.077 63.7724 201.291 63.7034 201.567 63.7034C201.857 63.7034 202.071 63.7724 202.209 63.9103C202.36 64.0483 202.436 64.2138 202.436 64.4069ZM200.946 67.8C200.946 67.5931 201.015 67.4345 201.153 67.3241C201.291 67.2 201.415 67.1379 201.526 67.1379C201.636 67.1379 201.726 67.1586 201.795 67.2C201.864 67.2276 201.933 67.2759 202.002 67.3448C202.153 67.4414 202.229 67.5931 202.229 67.8V74.3793C202.229 74.5862 202.16 74.7448 202.022 74.8552C201.884 74.9517 201.733 75 201.567 75C201.402 75 201.257 74.9517 201.133 74.8552C201.009 74.7448 200.946 74.5862 200.946 74.3793V67.8ZM204.654 71.0897C204.654 70.5931 204.73 70.0966 204.882 69.6C205.047 69.1034 205.296 68.6552 205.627 68.2552C206.316 67.4138 207.296 66.9931 208.565 66.9931C209.834 66.9931 210.813 67.4138 211.503 68.2552C212.151 69.0552 212.475 69.9931 212.475 71.069C212.475 72.1586 212.151 73.0966 211.503 73.8828C210.813 74.7379 209.834 75.1655 208.565 75.1655C207.296 75.1655 206.316 74.7379 205.627 73.8828C204.979 73.1103 204.654 72.1793 204.654 71.0897ZM205.999 71.0897C205.999 71.4207 206.041 71.7724 206.123 72.1448C206.22 72.5172 206.385 72.8621 206.62 73.1793C207.089 73.8552 207.737 74.1931 208.565 74.1931C209.434 74.1931 210.082 73.8552 210.51 73.1793C210.91 72.5448 211.11 71.8414 211.11 71.069C211.11 70.269 210.91 69.5793 210.51 69C210.068 68.3103 209.42 67.9655 208.565 67.9655C207.737 67.9655 207.089 68.3103 206.62 69C206.206 69.5655 205.999 70.2621 205.999 71.0897ZM214.894 67.7379C214.894 67.5586 214.963 67.4138 215.101 67.3034C215.238 67.1931 215.376 67.1379 215.514 67.1379C215.804 67.1379 215.99 67.2483 216.073 67.469C216.156 67.6897 216.176 68.0207 216.135 68.4621C216.301 68.0483 216.659 67.6897 217.211 67.3862C217.694 67.1241 218.17 66.9931 218.638 66.9931C219.121 66.9931 219.528 67.0552 219.859 67.1793C220.19 67.2897 220.494 67.469 220.77 67.7172C221.321 68.2414 221.597 69.0138 221.597 70.0345V74.4207C221.597 74.6138 221.521 74.7586 221.37 74.8552C221.232 74.9517 221.087 75 220.935 75C220.77 75 220.625 74.9517 220.501 74.8552C220.376 74.7448 220.314 74.6 220.314 74.4207V69.9517C220.314 69.3034 220.135 68.8069 219.776 68.4621C219.445 68.131 219.032 67.9655 218.535 67.9655C217.873 67.9655 217.307 68.1586 216.838 68.5448C216.37 68.9586 216.135 69.5931 216.135 70.4483V74.4207C216.135 74.6138 216.066 74.7586 215.928 74.8552C215.79 74.9517 215.638 75 215.473 75C215.307 75 215.17 74.9517 215.059 74.8552C214.949 74.7448 214.894 74.6 214.894 74.4207V67.7379ZM227.329 67.9655C226.129 67.9655 225.543 68.3448 225.57 69.1034C225.57 69.5862 225.915 69.9172 226.605 70.0966C226.839 70.1655 227.088 70.2276 227.35 70.2828C227.626 70.3379 227.922 70.4069 228.239 70.4897C228.557 70.5586 228.881 70.6552 229.212 70.7793C229.681 70.9172 230.039 71.1517 230.288 71.4828C230.55 71.8 230.681 72.1862 230.681 72.6414C230.681 73.469 230.329 74.1103 229.626 74.5655C228.991 74.9793 228.191 75.1793 227.226 75.1655C226.508 75.1655 225.805 75.0414 225.115 74.7931C224.839 74.6828 224.619 74.5517 224.453 74.4C224.288 74.2483 224.205 74.1034 224.205 73.9655C224.205 73.8276 224.246 73.7172 224.329 73.6345C224.426 73.5517 224.536 73.5103 224.66 73.5103C224.784 73.5103 224.922 73.5448 225.074 73.6138C225.239 73.6828 225.446 73.7586 225.695 73.8414C226.329 74.0759 226.839 74.1931 227.226 74.1931C227.612 74.1931 227.922 74.1724 228.157 74.131C228.391 74.0759 228.605 73.9931 228.798 73.8828C229.212 73.6069 229.419 73.2483 229.419 72.8069C229.419 72.4897 229.315 72.2483 229.108 72.0828C228.915 71.9034 228.66 71.7655 228.343 71.669C228.039 71.5724 227.736 71.4897 227.433 71.4207C227.129 71.3517 226.826 71.2828 226.522 71.2138C226.219 71.1448 225.929 71.0621 225.653 70.9655C225.377 70.869 225.143 70.7379 224.95 70.5724C224.481 70.2414 224.246 69.7724 224.246 69.1655C224.246 68.3931 224.57 67.8345 225.219 67.4897C225.757 67.1586 226.467 66.9931 227.35 66.9931C228.246 66.9931 228.964 67.1241 229.502 67.3862C229.957 67.6207 230.184 67.8828 230.184 68.1724C230.184 68.2828 230.136 68.3724 230.039 68.4414C229.957 68.5103 229.86 68.5448 229.75 68.5448C229.543 68.5448 229.384 68.5103 229.274 68.4414C229.177 68.3724 229.067 68.3034 228.943 68.2345C228.819 68.1655 228.674 68.1172 228.508 68.0897C228.205 68.0069 227.812 67.9655 227.329 67.9655Z" fill="#42BDE6"/>
<path d="M39.7892 75.9931C39.6789 76.269 39.5134 76.3931 39.2927 76.3655C39.141 76.3655 39.003 76.3241 38.8789 76.2414C38.7685 76.1586 38.7134 76.0621 38.7134 75.9517C38.7134 75.8552 38.7272 75.7586 38.7548 75.6621L42.5617 64.0759C42.6444 63.8 42.8375 63.6759 43.141 63.7034C43.2789 63.7034 43.403 63.7448 43.5134 63.8276C43.6237 63.9103 43.6789 64.0069 43.6789 64.1172C43.6789 64.2276 43.672 64.3241 43.6582 64.4069L39.7892 75.9931Z" fill="#839C9F"/>
<path d="M48.3899 67.9862C46.8451 67.9862 46.0726 69.0138 46.0726 71.069C46.0726 72.0345 46.314 72.7931 46.7968 73.3448C47.2106 73.8276 47.7485 74.0759 48.4106 74.0897C49.0864 74.0897 49.6588 73.8345 50.1278 73.3241C50.6244 72.7862 50.8726 72.0483 50.8726 71.1103C50.8726 69.7034 50.4313 68.7517 49.5485 68.2552C49.2451 68.0759 48.8588 67.9862 48.3899 67.9862ZM48.0588 66.9931C49.4106 66.9931 50.3623 67.5103 50.914 68.5448V67.6759C50.9416 67.5103 51.0106 67.3793 51.1209 67.2828C51.2313 67.1862 51.3623 67.1379 51.514 67.1379C51.6657 67.1379 51.8037 67.1931 51.9278 67.3034C52.0519 67.4138 52.114 67.5586 52.114 67.7379V75.1655C52.114 76.2414 51.7692 77.0414 51.0795 77.5655C50.4588 78.0621 49.5623 78.3103 48.3899 78.3103C47.3416 78.3103 46.5554 78.131 46.0313 77.7724C45.6175 77.469 45.4106 77.2207 45.4106 77.0276C45.4106 76.8897 45.4519 76.7724 45.5347 76.6759C45.6313 76.5931 45.7347 76.5517 45.8451 76.5517C45.9692 76.5517 46.0864 76.5862 46.1968 76.6552C46.3071 76.7379 46.4382 76.8138 46.5899 76.8828C46.7416 76.9517 46.8933 77.0138 47.0451 77.069C47.4451 77.2069 47.8519 77.2759 48.2657 77.2759C48.6933 77.2759 49.0588 77.2414 49.3623 77.1724C49.6795 77.1034 49.9485 76.9862 50.1692 76.8207C50.6382 76.5172 50.8726 75.9931 50.8726 75.2483V73.4483C50.4726 74.2069 49.8382 74.6966 48.9692 74.9172C48.6933 74.9724 48.4244 75 48.1623 75C47.0175 75 46.1416 74.6069 45.5347 73.8207C44.9692 73.1172 44.6864 72.2138 44.6864 71.1103C44.6864 69.9379 44.9692 68.9793 45.5347 68.2345C46.1278 67.4069 46.9692 66.9931 48.0588 66.9931ZM61.6291 74.4207C61.6291 74.6138 61.5533 74.7586 61.4015 74.8552C61.2636 74.9517 61.1395 75 61.0291 75C60.9326 75 60.8429 74.9931 60.7602 74.9793C60.6774 74.9517 60.6084 74.9034 60.5533 74.8345C60.4153 74.7379 60.3464 74.6 60.3464 74.4207V73.6966C60.0153 74.4276 59.4084 74.8828 58.5257 75.0621C58.2498 75.131 57.9533 75.1655 57.636 75.1655C57.3188 75.1655 56.9877 75.1103 56.6429 75C56.2981 74.8897 56.0015 74.7103 55.7533 74.4621C55.2015 73.9379 54.9257 73.1517 54.9257 72.1034V67.7586C54.9257 67.5655 54.9877 67.4138 55.1119 67.3034C55.236 67.1931 55.3808 67.1379 55.5464 67.1379C55.7119 67.1379 55.8567 67.1931 55.9808 67.3034C56.105 67.4138 56.1671 67.5655 56.1671 67.7586V72.2069C56.1671 72.9517 56.3188 73.469 56.6222 73.7586C56.9257 74.0483 57.3808 74.1931 57.9877 74.1931C59.0084 74.1931 59.7119 73.7793 60.0981 72.9517C60.2498 72.6621 60.3326 72.331 60.3464 71.9586V67.7586C60.3464 67.5655 60.4153 67.4138 60.5533 67.3034C60.6912 67.1931 60.8429 67.1379 61.0084 67.1379C61.174 67.1379 61.3188 67.1931 61.4429 67.3034C61.5671 67.4138 61.6291 67.5655 61.6291 67.7586V74.4207ZM66.0784 64.4069C66.0784 64.6276 66.0025 64.8069 65.8508 64.9448C65.6991 65.0828 65.4853 65.1517 65.2094 65.1517C64.9336 65.1517 64.7198 65.0828 64.568 64.9448C64.4163 64.8069 64.3404 64.6276 64.3404 64.4069C64.3404 64.2138 64.4163 64.0483 64.568 63.9103C64.7198 63.7724 64.9336 63.7034 65.2094 63.7034C65.4991 63.7034 65.7129 63.7724 65.8508 63.9103C66.0025 64.0483 66.0784 64.2138 66.0784 64.4069ZM64.5887 67.8C64.5887 67.5931 64.6577 67.4345 64.7956 67.3241C64.9336 67.2 65.0577 67.1379 65.168 67.1379C65.2784 67.1379 65.368 67.1586 65.437 67.2C65.506 67.2276 65.5749 67.2759 65.6439 67.3448C65.7956 67.4414 65.8715 67.5931 65.8715 67.8V74.3793C65.8715 74.5862 65.8025 74.7448 65.6646 74.8552C65.5267 74.9517 65.3749 75 65.2094 75C65.0439 75 64.8991 74.9517 64.7749 74.8552C64.6508 74.7448 64.5887 74.5862 64.5887 74.3793V67.8ZM74.4415 73.6966C73.7518 74.6759 72.8139 75.1655 71.6277 75.1655C70.5518 75.1655 69.7105 74.7379 69.1036 73.8828C68.5794 73.1103 68.3174 72.1724 68.3174 71.069C68.3174 69.2207 68.9311 67.9793 70.1587 67.3448C70.5725 67.1103 70.9863 66.9931 71.4001 66.9931C71.8277 66.9931 72.1794 67.0207 72.4553 67.0759C72.7311 67.1172 72.9932 67.2069 73.2415 67.3448C73.7656 67.6069 74.1656 67.9655 74.4415 68.4207V64.3241C74.4415 64.1172 74.5105 63.9724 74.6484 63.8897C74.7863 63.7931 74.938 63.7448 75.1036 63.7448C75.2691 63.7448 75.4139 63.7931 75.538 63.8897C75.6622 63.9724 75.7243 64.1172 75.7243 64.3241V74.4207C75.7243 74.6138 75.6553 74.7586 75.5174 74.8552C75.3794 74.9517 75.2553 75 75.1449 75C75.0346 75 74.938 74.9931 74.8553 74.9793C74.7863 74.9517 74.7174 74.9034 74.6484 74.8345C74.5105 74.7379 74.4415 74.6 74.4415 74.4207V73.6966ZM71.876 74.1931C73.5587 74.1931 74.4001 73.1103 74.4001 70.9448C74.4001 69.5517 73.9794 68.6414 73.138 68.2138C72.8208 68.0483 72.4415 67.9655 72.0001 67.9655C71.5587 67.9655 71.1932 68.0552 70.9036 68.2345C70.6139 68.4 70.3725 68.6276 70.1794 68.9172C69.8346 69.4552 69.6622 70.1379 69.6622 70.9655C69.6622 72.1931 69.9518 73.0966 70.5311 73.6759C70.8622 74.0207 71.3105 74.1931 71.876 74.1931ZM85.529 70.8414C85.529 71.131 85.3635 71.2897 85.0325 71.3172H79.3635C79.4187 72.7241 79.9704 73.6345 81.0187 74.0483C81.3083 74.1448 81.6394 74.1931 82.0118 74.1931C82.7842 74.1931 83.5704 73.9103 84.3704 73.3448C84.6187 73.2069 84.8256 73.2207 84.9911 73.3862C85.0738 73.469 85.1014 73.5517 85.0738 73.6345C85.0738 73.8276 85.0256 73.9655 84.929 74.0483C84.1704 74.8069 83.1704 75.1793 81.929 75.1655C80.798 75.1655 79.8876 74.8 79.198 74.069C78.4256 73.3103 78.0394 72.3103 78.0394 71.069C78.0394 69.9241 78.3566 68.9793 78.9911 68.2345C79.6532 67.4069 80.5911 66.9931 81.8049 66.9931C83.0187 66.9931 83.9428 67.3586 84.5773 68.0897C85.1842 68.7517 85.5014 69.669 85.529 70.8414ZM84.3083 70.469C84.2669 69.7241 84.0256 69.1103 83.5842 68.6276C83.1704 68.1862 82.5773 67.9655 81.8049 67.9655C81.1428 67.9655 80.5773 68.2138 80.1083 68.7103C79.6807 69.2069 79.4463 69.7931 79.4049 70.469H84.3083Z" fill="#88C0D0"/>
</svg>
