<svg width="32" height="32" viewBox="0 0 32 32" fill="none" xmlns="http://www.w3.org/2000/svg">
<path d="M13.037 9.48148C13.037 9.01266 13.1761 8.55438 13.4365 8.16457C13.697 7.77477 14.0672 7.47095 14.5003 7.29154C14.9334 7.11214 15.41 7.06519 15.8698 7.15666C16.3297 7.24812 16.752 7.47387 17.0835 7.80538C17.415 8.13688 17.6408 8.55924 17.7322 9.01904C17.8237 9.47885 17.7768 9.95545 17.5973 10.3886C17.4179 10.8217 17.1141 11.1919 16.7243 11.4524C16.3345 11.7128 15.8762 11.8518 15.4074 11.8518C14.7788 11.8518 14.1758 11.6021 13.7313 11.1576C13.2868 10.7131 13.037 10.1101 13.037 9.48148ZM32 16C32 19.1645 31.0616 22.2579 29.3035 24.8891C27.5454 27.5203 25.0466 29.5711 22.1229 30.7821C19.1993 31.9931 15.9823 32.3099 12.8786 31.6926C9.77486 31.0752 6.92394 29.5513 4.6863 27.3137C2.44866 25.0761 0.924806 22.2251 0.307443 19.1214C-0.309921 16.0177 0.00693258 12.8007 1.21793 9.87706C2.42894 6.95345 4.4797 4.45459 7.11088 2.69649C9.74207 0.938384 12.8355 0 16 0C20.242 0.00470552 24.309 1.69193 27.3085 4.69149C30.3081 7.69105 31.9953 11.758 32 16ZM28.4444 16C28.4444 13.5387 27.7146 11.1327 26.3472 9.08624C24.9798 7.03976 23.0362 5.44472 20.7623 4.50283C18.4884 3.56094 15.9862 3.3145 13.5722 3.79467C11.1582 4.27484 8.94084 5.46006 7.20045 7.20045C5.46007 8.94083 4.27485 11.1582 3.79468 13.5722C3.31451 15.9862 3.56095 18.4884 4.50284 20.7623C5.44473 23.0362 7.03976 24.9798 9.08624 26.3472C11.1327 27.7146 13.5387 28.4444 16 28.4444C19.2994 28.4409 22.4626 27.1287 24.7957 24.7956C27.1287 22.4626 28.4409 19.2994 28.4444 16ZM17.7778 21.4341V16.5926C17.7778 15.8068 17.4656 15.0531 16.91 14.4975C16.3543 13.9418 15.6006 13.6296 14.8148 13.6296C14.395 13.629 13.9885 13.777 13.6673 14.0474C13.3461 14.3177 13.131 14.6931 13.06 15.1069C12.989 15.5207 13.0668 15.9462 13.2795 16.3082C13.4922 16.6701 13.8262 16.9451 14.2222 17.0844V21.9259C14.2222 22.7117 14.5344 23.4654 15.0901 24.0211C15.6457 24.5767 16.3994 24.8889 17.1852 24.8889C17.605 24.8895 18.0115 24.7415 18.3327 24.4712C18.6539 24.2008 18.869 23.8255 18.94 23.4117C19.011 22.9979 18.9332 22.5723 18.7205 22.2103C18.5078 21.8484 18.1738 21.5734 17.7778 21.4341Z" fill="#EEF7FB"/>
</svg>
