<svg width="26" height="24" viewBox="0 0 26 24" fill="none" xmlns="http://www.w3.org/2000/svg">
<path d="M14 11V23C14 23.2652 13.8946 23.5196 13.7071 23.7071C13.5196 23.8946 13.2652 24 13 24C12.7348 24 12.4804 23.8946 12.2929 23.7071C12.1054 23.5196 12 23.2652 12 23V11C12 10.7348 12.1054 10.4804 12.2929 10.2929C12.4804 10.1054 12.7348 10 13 10C13.2652 10 13.5196 10.1054 13.7071 10.2929C13.8946 10.4804 14 10.7348 14 11ZM22 20C21.7348 20 21.4804 20.1054 21.2929 20.2929C21.1054 20.4804 21 20.7348 21 21V23C21 23.2652 21.1054 23.5196 21.2929 23.7071C21.4804 23.8946 21.7348 24 22 24C22.2652 24 22.5196 23.8946 22.7071 23.7071C22.8946 23.5196 23 23.2652 23 23V21C23 20.7348 22.8946 20.4804 22.7071 20.2929C22.5196 20.1054 22.2652 20 22 20ZM25 16H23V1C23 0.734784 22.8946 0.48043 22.7071 0.292893C22.5196 0.105357 22.2652 0 22 0C21.7348 0 21.4804 0.105357 21.2929 0.292893C21.1054 0.48043 21 0.734784 21 1V16H19C18.7348 16 18.4804 16.1054 18.2929 16.2929C18.1054 16.4804 18 16.7348 18 17C18 17.2652 18.1054 17.5196 18.2929 17.7071C18.4804 17.8946 18.7348 18 19 18H25C25.2652 18 25.5196 17.8946 25.7071 17.7071C25.8946 17.5196 26 17.2652 26 17C26 16.7348 25.8946 16.4804 25.7071 16.2929C25.5196 16.1054 25.2652 16 25 16ZM4 16C3.73478 16 3.48043 16.1054 3.29289 16.2929C3.10536 16.4804 3 16.7348 3 17V23C3 23.2652 3.10536 23.5196 3.29289 23.7071C3.48043 23.8946 3.73478 24 4 24C4.26522 24 4.51957 23.8946 4.70711 23.7071C4.89464 23.5196 5 23.2652 5 23V17C5 16.7348 4.89464 16.4804 4.70711 16.2929C4.51957 16.1054 4.26522 16 4 16ZM7 12H5V1C5 0.734784 4.89464 0.48043 4.70711 0.292893C4.51957 0.105357 4.26522 0 4 0C3.73478 0 3.48043 0.105357 3.29289 0.292893C3.10536 0.48043 3 0.734784 3 1V12H1C0.734784 12 0.48043 12.1054 0.292893 12.2929C0.105357 12.4804 0 12.7348 0 13C0 13.2652 0.105357 13.5196 0.292893 13.7071C0.48043 13.8946 0.734784 14 1 14H7C7.26522 14 7.51957 13.8946 7.70711 13.7071C7.89464 13.5196 8 13.2652 8 13C8 12.7348 7.89464 12.4804 7.70711 12.2929C7.51957 12.1054 7.26522 12 7 12ZM16 6H14V1C14 0.734784 13.8946 0.48043 13.7071 0.292893C13.5196 0.105357 13.2652 0 13 0C12.7348 0 12.4804 0.105357 12.2929 0.292893C12.1054 0.48043 12 0.734784 12 1V6H10C9.73478 6 9.48043 6.10536 9.29289 6.29289C9.10536 6.48043 9 6.73478 9 7C9 7.26522 9.10536 7.51957 9.29289 7.70711C9.48043 7.89464 9.73478 8 10 8H16C16.2652 8 16.5196 7.89464 16.7071 7.70711C16.8946 7.51957 17 7.26522 17 7C17 6.73478 16.8946 6.48043 16.7071 6.29289C16.5196 6.10536 16.2652 6 16 6Z" fill="#839C9F"/>
</svg>
