<svg width="32" height="32" viewBox="0 0 32 32" fill="none" xmlns="http://www.w3.org/2000/svg">
<path d="M31.4837 25.5538L19.4225 2.18965C19.0732 1.52322 18.5735 0.970438 17.9732 0.586284C17.3728 0.202131 16.6928 0 16.0007 0C15.3086 0 14.6286 0.202131 14.0282 0.586284C13.4279 0.970438 12.9282 1.52322 12.5789 2.18965L0.517637 25.5538C0.178654 26.2005 0 26.9361 0 27.6853C0 28.4344 0.178654 29.1701 0.517637 29.8168C0.863115 30.4865 1.36212 31.0417 1.96344 31.4253C2.56477 31.8089 3.24677 32.0072 3.93947 31.9998H28.0619C28.7541 32.0067 29.4356 31.8081 30.0364 31.4245C30.6372 31.0409 31.1357 30.4861 31.481 29.8168C31.8204 29.1703 31.9995 28.4348 32 27.6857C32.0005 26.9366 31.8223 26.2008 31.4837 25.5538ZM28.615 27.9691C28.5589 28.0757 28.478 28.1635 28.3809 28.223C28.2838 28.2826 28.1741 28.3118 28.0633 28.3076H3.93947C3.8287 28.3118 3.71897 28.2826 3.62186 28.223C3.52475 28.1635 3.44387 28.0757 3.38778 27.9691C3.3402 27.8828 3.31501 27.7835 3.31501 27.6822C3.31501 27.5809 3.3402 27.4816 3.38778 27.3953L15.449 4.03115C15.5087 3.92861 15.5905 3.84434 15.6868 3.786C15.7832 3.72766 15.8911 3.6971 16.0007 3.6971C16.1103 3.6971 16.2182 3.72766 16.3146 3.786C16.4109 3.84434 16.4927 3.92861 16.5524 4.03115L28.6122 27.3953C28.6602 27.4813 28.6859 27.5805 28.6864 27.6818C28.6869 27.7831 28.6621 27.8825 28.615 27.9691ZM14.3456 17.8462V12.9233C14.3456 12.4337 14.52 11.9641 14.8304 11.6179C15.1408 11.2717 15.5617 11.0772 16.0007 11.0772C16.4396 11.0772 16.8606 11.2717 17.171 11.6179C17.4814 11.9641 17.6557 12.4337 17.6557 12.9233V17.8462C17.6557 18.3359 17.4814 18.8054 17.171 19.1516C16.8606 19.4979 16.4396 19.6924 16.0007 19.6924C15.5617 19.6924 15.1408 19.4979 14.8304 19.1516C14.52 18.8054 14.3456 18.3359 14.3456 17.8462ZM18.2074 24C18.2074 24.4868 18.078 24.9627 17.8355 25.3675C17.593 25.7723 17.2484 26.0878 16.8452 26.2741C16.4419 26.4604 15.9982 26.5091 15.5702 26.4142C15.1421 26.3192 14.7489 26.0847 14.4403 25.7405C14.1317 25.3963 13.9215 24.9577 13.8364 24.4802C13.7512 24.0027 13.7949 23.5078 13.9619 23.058C14.1289 22.6082 14.4118 22.2238 14.7747 21.9533C15.1376 21.6828 15.5642 21.5385 16.0007 21.5385C16.586 21.5385 17.1472 21.7978 17.5611 22.2594C17.9749 22.7211 18.2074 23.3471 18.2074 24Z" fill="#EEF7FB"/>
</svg>
